<?xml version="1.0" standalone="no"?>
<!DOCTYPE svg PUBLIC "-//W3C//DTD SVG 20010904//EN"
 "http://www.w3.org/TR/2001/REC-SVG-20010904/DTD/svg10.dtd">
<svg version="1.0" xmlns="http://www.w3.org/2000/svg"
 width="500.000000pt" height="500.000000pt" viewBox="0 0 500.000000 500.000000"
 preserveAspectRatio="xMidYMid meet">

<g transform="translate(0.000000,500.000000) scale(0.100000,-0.100000)"
fill="#000000" stroke="none">
<path d="M2567 4733 c-4 -32 -9 -141 -13 -242 -8 -207 -10 -201 68 -201 41 0
48 3 52 23 7 34 25 461 19 470 -2 4 -30 7 -62 7 l-58 0 -6 -57z"/>
<path d="M1663 4649 c-29 -11 -53 -24 -53 -29 0 -23 33 -90 44 -90 29 0 106
33 106 46 0 19 -31 94 -39 93 -3 0 -30 -9 -58 -20z"/>
<path d="M2147 4626 c-75 -27 -107 -78 -107 -169 0 -67 32 -133 80 -165 29
-20 45 -23 95 -20 113 8 159 49 120 106 -15 20 -18 21 -40 6 -29 -19 -106 -24
-112 -7 -5 14 4 18 61 28 24 4 51 18 69 36 27 27 29 35 25 80 -6 55 -27 85
-75 105 -40 17 -67 17 -116 0z m71 -120 c4 -20 -13 -36 -40 -36 -11 0 -18 7
-18 18 0 40 51 56 58 18z"/>
<path d="M2980 4571 c-46 -24 -89 -94 -97 -158 -4 -41 -1 -61 16 -97 30 -61
75 -88 161 -94 62 -4 69 -3 79 17 6 11 9 32 5 46 -5 22 -12 25 -48 25 -55 0
-83 9 -91 27 -8 23 -3 24 51 13 65 -13 104 -2 132 40 44 65 20 145 -53 180
-52 25 -110 25 -155 1z m105 -116 c0 -21 -25 -31 -51 -21 -12 5 -13 10 -4 26
15 27 55 23 55 -5z"/>
<path d="M1713 4512 c-23 -9 -44 -20 -48 -23 -6 -7 101 -308 115 -323 9 -9
106 20 115 34 8 13 -112 325 -126 327 -8 1 -33 -6 -56 -15z"/>
<path d="M3505 4470 c-13 -25 -20 -29 -40 -24 -19 5 -26 0 -39 -25 -20 -38
-20 -51 0 -66 14 -10 10 -24 -40 -122 -41 -84 -52 -114 -43 -121 18 -14 98
-54 102 -50 1 2 28 54 59 116 51 101 58 111 76 102 29 -16 38 -12 55 20 21 41
19 55 -11 69 -19 8 -24 16 -19 29 21 48 18 57 -30 80 -25 12 -48 22 -50 22 -2
0 -11 -14 -20 -30z"/>
<path d="M1232 4440 c-34 -23 -66 -49 -71 -57 -6 -11 3 -49 25 -117 19 -55 33
-104 31 -109 -1 -4 -44 21 -96 57 -82 56 -97 63 -119 55 -40 -15 -122 -79
-122 -95 0 -23 252 -394 268 -394 20 0 80 38 91 58 7 12 -8 41 -58 116 -77
116 -84 126 -78 126 2 0 55 -38 117 -85 62 -47 117 -85 122 -85 4 0 22 12 38
28 l31 27 -45 129 c-25 70 -46 133 -46 138 0 6 38 -38 85 -96 47 -58 91 -106
98 -106 19 0 97 60 97 74 0 16 -279 370 -294 374 -7 1 -40 -16 -74 -38z"/>
<path d="M3857 4182 c-31 -36 -29 -56 9 -77 38 -20 60 -50 45 -60 -5 -3 -31 8
-57 25 -65 41 -106 40 -149 -3 -41 -41 -51 -77 -36 -128 14 -45 70 -89 113
-89 21 0 28 -5 28 -19 0 -26 38 -71 60 -71 10 0 32 13 49 29 31 29 39 55 21
66 -16 10 -12 19 40 84 42 52 50 69 50 104 0 36 -6 46 -48 87 -60 58 -104 76
-125 52z m-18 -191 c18 -12 -3 -51 -29 -51 -22 0 -31 19 -18 43 10 19 25 21
47 8z"/>
<path d="M2288 4129 c-530 -73 -1011 -382 -1286 -825 -114 -184 -197 -389
-242 -599 -28 -131 -37 -391 -20 -547 46 -419 235 -801 542 -1093 139 -133
264 -220 433 -305 252 -126 458 -179 730 -187 198 -7 323 5 495 47 335 82 625
251 865 502 235 246 393 546 465 883 27 128 38 397 21 545 -46 402 -214 758
-491 1044 -263 271 -548 429 -925 512 -103 22 -149 27 -320 30 -110 1 -230 -1
-267 -7z m348 -99 c586 -45 1101 -385 1368 -900 308 -596 241 -1299 -175
-1820 -108 -136 -244 -261 -389 -358 -579 -386 -1370 -365 -1924 53 -337 253
-563 608 -647 1015 -25 121 -38 370 -27 499 23 268 137 576 296 801 94 134
291 329 422 417 287 193 548 278 935 301 11 1 74 -3 141 -8z"/>
<path d="M2604 3309 c-14 -23 -28 -258 -16 -283 8 -17 7 -27 -1 -36 -9 -10 -9
-14 1 -17 6 -3 12 -13 12 -24 0 -18 -15 -19 -567 -20 -313 0 -589 -2 -615 -3
-85 -3 -79 -23 30 -100 l80 -56 266 -1 c146 0 268 -4 270 -7 1 -4 0 -83 -4
-177 -4 -93 -5 -176 -3 -183 3 -7 46 -42 95 -77 l90 -65 3 -132 c2 -99 -1
-142 -12 -168 -8 -19 -17 -64 -19 -100 -3 -36 -12 -82 -20 -103 -17 -47 -18
-101 -1 -115 17 -15 34 -2 42 31 9 33 20 35 36 6 20 -38 28 -76 17 -87 -29
-29 20 -54 62 -32 25 14 35 -2 50 -85 15 -77 29 -101 56 -91 14 5 16 17 11 79
-2 39 -8 80 -12 89 -6 15 3 17 87 15 89 -1 558 29 606 39 21 4 23 9 16 36 -6
32 -6 32 17 16 38 -25 59 -71 66 -142 l6 -67 36 3 c34 3 36 5 39 41 2 21 -2
62 -9 90 -18 81 -21 439 -3 489 15 43 17 149 5 236 -4 29 -5 54 -3 57 3 3 27
-11 54 -30 l49 -36 117 3 117 3 3 190 c4 204 7 216 60 236 26 10 29 35 5 47
-10 6 -88 33 -173 61 -110 36 -179 52 -237 57 l-83 7 0 156 c0 128 -3 162 -18
191 -23 48 -58 52 -92 12 -25 -30 -28 -31 -117 -33 -50 -1 -96 2 -102 5 -6 4
-11 20 -11 37 0 16 -4 29 -10 29 -5 0 -10 -15 -10 -34 0 -29 -4 -36 -31 -45
-71 -25 -142 -6 -158 42 -9 24 -14 28 -23 19 -18 -18 -28 -15 -28 7 0 24 -16
36 -26 20z m529 -73 c-10 -13 -19 -23 -21 -21 -7 6 19 45 29 45 5 0 2 -11 -8
-24z m-460 -4 c10 -11 14 -26 10 -40 -6 -24 14 -32 23 -9 3 9 25 13 67 13 34
0 116 3 183 8 116 9 122 8 143 -13 18 -18 21 -32 21 -111 0 -72 -3 -90 -14
-90 -8 0 -18 5 -21 10 -3 6 -15 10 -26 10 -16 0 -19 7 -19 40 0 77 -41 94
-218 88 -101 -3 -113 -5 -136 -27 -15 -14 -30 -38 -34 -55 -4 -16 -13 -31 -20
-34 -9 -3 -12 18 -12 75 0 141 15 178 53 135z m517 -40 c0 -7 -4 -10 -10 -7
-5 3 -10 16 -10 28 0 18 2 19 10 7 5 -8 10 -21 10 -28z m-583 -115 c-2 -23 -3
-1 -3 48 0 50 1 68 3 42 2 -26 2 -67 0 -90z m563 76 c0 -16 -7 -37 -15 -47 -8
-11 -15 -15 -15 -9 0 7 5 15 11 19 6 3 9 19 7 35 -3 16 -1 29 4 29 4 0 8 -12
8 -27z m20 -34 c0 -16 -4 -28 -9 -25 -8 5 -3 56 5 56 2 0 4 -14 4 -31z m-224
-5 c27 -5 37 -29 24 -54 -6 -10 -10 -35 -10 -55 0 -75 -1 -75 -185 -75 l-165
0 0 34 c0 19 6 36 13 39 7 3 19 23 25 46 7 22 23 46 35 53 35 21 187 28 263
12z m44 -161 c-6 -29 -16 -53 -22 -53 -6 0 -8 11 -4 28 4 15 12 59 19 97 12
69 12 69 15 25 2 -25 -1 -69 -8 -97z m180 98 c-6 -12 -15 -21 -21 -21 -5 0 -2
11 8 24 21 28 29 27 13 -3z m-30 9 c0 -5 -4 -10 -10 -10 -5 0 -10 5 -10 10 0
6 5 10 10 10 6 0 10 -4 10 -10z m52 -42 c3 -18 -9 -96 -16 -104 -1 -1 -12 -5
-26 -9 -22 -7 -23 -6 -11 9 7 9 11 25 8 36 -3 13 0 20 9 20 8 0 14 9 14 20 0
11 -5 20 -11 20 -8 0 -8 5 1 15 18 21 28 19 32 -7z m-131 -58 c22 0 28 -6 33
-31 8 -43 2 -49 -56 -49 -47 0 -50 1 -44 23 4 12 9 35 13 50 4 20 9 25 16 18
6 -6 23 -11 38 -11z m-704 -102 l92 -48 251 0 c160 0 250 4 250 10 0 6 -76 10
-208 10 l-208 0 -69 38 c-61 32 -67 37 -43 40 15 2 48 -9 80 -27 50 -28 60
-30 163 -31 61 -1 119 -2 130 -2 44 -3 148 2 143 7 -3 3 -54 6 -115 7 -94 0
-115 4 -153 24 l-45 23 148 1 c136 0 152 -2 178 -21 26 -18 41 -21 114 -18 45
2 78 1 72 -3 -7 -4 -52 -8 -101 -8 -49 0 -87 -2 -84 -5 8 -9 268 -9 276 0 4 4
1 10 -5 12 -7 3 -13 8 -13 13 0 5 27 -1 60 -13 33 -12 60 -25 60 -29 0 -5 -83
-8 -185 -8 -117 0 -185 -4 -185 -10 0 -12 391 -12 430 0 25 7 25 7 -10 22 -19
9 -42 18 -50 21 -10 3 -6 6 8 6 13 1 70 -14 125 -31 l102 -33 -278 -3 c-179
-1 -276 -6 -272 -12 3 -6 1 -10 -4 -10 -6 0 -11 5 -11 10 0 7 -255 10 -746 10
-537 0 -751 3 -767 11 -12 7 -44 28 -72 48 l-50 36 305 6 c168 3 370 5 450 5
l145 -1 92 -47z m69 12 c62 -31 73 -40 51 -40 -25 0 -167 64 -167 75 0 14 46
1 116 -35z m223 7 l26 -11 -33 -4 c-18 -2 -46 4 -63 12 -17 9 -35 13 -40 10
-5 -3 -9 0 -9 7 0 13 77 4 119 -14z m851 -107 c97 -1 166 -5 155 -9 -25 -10
-1409 -13 -1450 -3 -27 6 1053 21 1100 15 11 -2 99 -3 195 -3z m-1414 -51 c-7
-34 -7 -55 0 -67 15 -24 104 -83 115 -76 5 3 9 28 9 55 0 31 -4 48 -10 44 -5
-3 -10 -22 -10 -41 0 -19 -3 -34 -8 -34 -4 0 -24 14 -45 31 -31 26 -37 37 -37
70 0 21 2 39 6 39 3 0 22 -11 42 -25 39 -27 58 -32 46 -14 -4 8 0 8 15 0 18
-10 21 -21 21 -74 0 -93 -5 -95 -88 -40 l-72 48 0 67 c0 50 4 68 13 68 11 0
11 -10 3 -51z m48 35 c5 -14 4 -15 -9 -4 -17 14 -19 20 -6 20 5 0 12 -7 15
-16z m269 -31 c-29 -2 -78 -2 -110 0 -32 2 -8 3 52 3 61 0 87 -1 58 -3z m87
-3 c0 -5 -4 -10 -10 -10 -5 0 -10 5 -10 10 0 6 5 10 10 10 6 0 10 -4 10 -10z
m250 0 c0 -6 -45 -10 -115 -10 -70 0 -115 4 -115 10 0 6 45 10 115 10 70 0
115 -4 115 -10z m400 0 c0 -6 -70 -10 -190 -10 -120 0 -190 4 -190 10 0 6 70
10 190 10 120 0 190 -4 190 -10z m220 0 c0 -6 -40 -10 -100 -10 -60 0 -100 4
-100 10 0 6 40 10 100 10 60 0 100 -4 100 -10z m50 0 c0 -5 -7 -10 -16 -10 -8
0 -12 5 -9 10 3 6 10 10 16 10 5 0 9 -4 9 -10z m188 3 c-32 -2 -86 -2 -120 0
-35 2 -9 3 57 3 66 0 94 -1 63 -3z m-1108 -42 c0 -6 -4 -13 -10 -16 -5 -3 -10
1 -10 9 0 9 5 16 10 16 6 0 10 -4 10 -9z m248 -3 c-3 -9 -39 -14 -121 -16
-101 -3 -117 -1 -117 12 0 14 18 16 121 16 92 0 120 -3 117 -12z m402 4 c0
-10 -174 -22 -302 -22 -63 0 -78 3 -78 15 0 13 28 15 190 15 105 0 190 -4 190
-8z m220 -2 c0 -6 -40 -10 -100 -10 -60 0 -100 4 -100 10 0 6 40 10 100 10 60
0 100 -4 100 -10z m40 0 c0 -5 -4 -10 -10 -10 -5 0 -10 5 -10 10 0 6 5 10 10
10 6 0 10 -4 10 -10z m204 4 c12 -5 16 -19 14 -63 l-1 -56 -6 55 -6 55 -78 3
c-76 3 -77 2 -88 -25 -5 -15 -9 -43 -7 -62 l3 -36 88 0 c48 0 87 -3 87 -7 0
-5 -7 -8 -15 -8 -8 0 -15 -6 -16 -12 0 -10 -2 -10 -6 0 -3 8 -29 12 -79 12
l-74 0 0 68 c0 38 3 72 7 75 8 9 156 9 177 1z m-1159 -64 c0 -89 0 -90 -59
-88 l-51 1 45 6 45 6 3 63 3 62 -86 0 -85 0 -1 -55 c-1 -30 -2 -61 -3 -67 -1
-8 9 -12 22 -11 12 2 22 -2 22 -7 0 -13 -47 -13 -55 0 -3 6 -3 42 1 80 l7 71
96 -3 96 -3 0 -55z m1145 -5 c0 -25 -2 -45 -4 -45 -2 0 -10 -2 -18 -5 -10 -4
-13 5 -13 32 0 31 -4 39 -21 41 -32 5 -50 -23 -35 -54 11 -24 10 -25 -16 -22
-24 2 -29 8 -31 36 -6 57 1 62 73 62 l65 0 0 -45z m-1180 -10 c0 -31 -4 -45
-13 -45 -9 0 -12 9 -9 28 5 36 -21 61 -46 45 -12 -7 -16 -22 -14 -47 3 -33 1
-36 -23 -36 -23 0 -25 3 -25 50 l0 50 65 0 65 0 0 -45z m730 35 c0 -6 -88 -10
-242 -10 -141 0 -259 -5 -281 -11 -21 -6 -56 -26 -78 -46 -22 -20 -41 -34 -43
-32 -1 2 -1 25 2 51 l4 48 171 3 c430 7 467 7 467 -3z m220 -35 c0 -43 -11
-58 -26 -34 -10 18 -106 59 -136 59 -16 0 -28 4 -28 8 0 4 43 9 95 10 l95 3 0
-46z m40 -10 c0 -44 -3 -55 -16 -55 -11 0 -14 5 -10 16 3 9 6 33 6 55 0 21 5
39 10 39 6 0 10 -25 10 -55z m-920 -10 c0 -30 -4 -55 -9 -55 -7 0 -9 93 -2
108 6 14 11 -8 11 -53z m1057 29 c-3 -3 -12 -4 -19 -1 -8 3 -5 6 6 6 11 1 17
-2 13 -5z m-1436 -21 c13 -17 13 -17 -6 -3 -11 8 -22 16 -24 17 -2 2 0 3 6 3
6 0 17 -8 24 -17z m652 8 c4 -1 7 -11 7 -23 0 -19 -2 -20 -10 -8 -7 11 -10 12
-10 2 0 -10 -3 -10 -15 2 -20 20 -19 35 3 31 9 -2 20 -4 25 -4z m104 -23 c-3
-7 -5 -2 -5 12 0 14 2 19 5 13 2 -7 2 -19 0 -25z m42 5 l-1 -28 -9 25 c-7 21
-8 19 -4 -12 2 -21 0 -38 -6 -38 -5 0 -9 18 -9 40 0 29 4 40 15 40 10 0 15 -9
14 -27z m38 -20 c-3 -10 -5 -2 -5 17 0 19 2 27 5 18 2 -10 2 -26 0 -35z m74
32 c6 15 8 9 8 -22 1 -34 -2 -41 -14 -37 -8 4 -15 10 -15 15 0 5 -4 9 -10 9
-5 0 -10 -17 -10 -37 0 -28 -3 -34 -10 -23 -8 12 -10 10 -11 -10 -1 -18 -3
-20 -6 -7 -3 10 1 24 7 32 7 8 10 22 6 30 -3 8 -1 15 4 15 6 0 10 10 11 23 0
21 1 21 9 2 8 -18 9 -18 10 5 2 21 3 22 8 5 l5 -20 8 20z m39 -25 c6 20 8 14
15 -33 8 -63 4 -77 -20 -57 -10 8 -15 9 -15 1 0 -6 -5 -11 -10 -11 -7 0 -7 6
0 19 5 11 11 44 12 73 1 43 2 46 6 18 5 -33 5 -33 12 -10z m141 28 c6 -82 3
-128 -9 -128 -7 0 -10 5 -7 10 3 6 2 10 -3 10 -15 0 -24 65 -12 94 10 27 29
35 31 14z m-494 -30 c-3 -7 -5 -2 -5 12 0 14 2 19 5 13 2 -7 2 -19 0 -25z
m133 25 c0 -5 -5 -15 -10 -23 -8 -12 -10 -11 -10 8 0 12 5 22 10 22 6 0 10 -3
10 -7z m87 -30 c-3 -10 -5 -4 -5 12 0 17 2 24 5 18 2 -7 2 -21 0 -30z m160 0
c-3 -10 -5 -4 -5 12 0 17 2 24 5 18 2 -7 2 -21 0 -30z m55 24 c-6 -6 -12 -28
-15 -47 -3 -30 -4 -28 -5 13 -2 37 1 47 14 47 12 0 14 -3 6 -13z m151 -13 c4
-1 11 -2 16 -3 6 0 4 -15 -4 -34 -20 -49 -27 -161 -17 -270 8 -79 6 -111 -6
-165 -13 -52 -16 -114 -14 -277 2 -201 2 -208 -14 -172 -9 20 -22 37 -30 37
-18 0 -18 -3 6 -42 11 -18 20 -37 20 -43 0 -5 -9 5 -20 23 -11 18 -27 35 -35
39 -20 7 -55 84 -55 120 -1 25 -2 26 -14 11 -17 -24 -37 -23 -70 3 -14 11 -26
19 -26 17 0 -2 -9 -28 -20 -58 -12 -33 -18 -43 -16 -25 2 17 11 48 20 70 8 22
15 64 16 93 0 28 5 52 10 52 6 0 10 -24 10 -52 0 -99 46 -141 77 -71 l17 38 6
-69 c5 -50 12 -73 25 -82 24 -18 29 -18 49 5 40 44 29 198 -15 222 -16 8 -22
5 -37 -20 -20 -35 -32 -40 -32 -12 0 11 14 29 30 41 17 12 30 27 30 34 0 8 6
19 14 25 8 7 24 33 36 58 28 60 31 204 5 273 -27 74 -29 84 -17 76 7 -4 12
-16 12 -27 0 -10 5 -19 10 -19 6 0 10 26 10 59 0 32 5 73 12 91 9 28 8 35 -5
45 -20 14 -23 30 -4 18 6 -4 15 -8 20 -9z m-1083 -49 c0 -2 -13 4 -30 13 -16
9 -30 21 -30 25 0 5 14 -1 30 -13 17 -12 30 -23 30 -25z m410 25 c0 -11 -4
-20 -9 -20 -5 0 -7 9 -4 20 3 11 7 20 9 20 2 0 4 -9 4 -20z m221 -40 c-7 -36
-9 -39 -10 -15 -1 33 11 85 16 70 1 -6 -1 -30 -6 -55z m266 13 c-3 -10 -5 -2
-5 17 0 19 2 27 5 18 2 -10 2 -26 0 -35z m-1022 -33 l-7 -58 55 -41 c29 -23
59 -41 64 -41 11 0 23 84 16 105 -2 6 -23 23 -48 38 -25 16 -48 33 -51 39 -4
6 21 -8 55 -31 l61 -42 0 -69 c0 -39 -3 -70 -6 -70 -3 0 -39 23 -80 52 l-74
52 0 68 c0 47 3 67 11 62 7 -4 8 -26 4 -64z m582 48 c-3 -8 -6 -5 -6 6 -1 11
2 17 5 13 3 -3 4 -12 1 -19z m133 -9 c0 -17 -4 -28 -10 -24 -5 3 -10 -3 -10
-15 0 -13 4 -19 12 -14 7 4 8 3 4 -4 -11 -18 -26 -14 -26 6 0 14 -2 15 -10 2
-8 -12 -10 -10 -10 8 0 13 4 20 10 17 6 -3 10 1 10 10 0 9 5 13 10 10 6 -3 10
3 10 14 0 12 2 21 5 21 3 0 5 -14 5 -31z m-155 -19 c-9 -41 -17 -33 -9 9 4 17
9 30 11 27 3 -2 2 -19 -2 -36z m172 -12 c-2 -13 -4 -5 -4 17 -1 22 1 32 4 23
2 -10 2 -28 0 -40z m-237 4 c0 -15 2 -15 11 -2 8 13 10 12 7 -3 -4 -25 -22
-23 -26 3 -2 11 -8 17 -14 14 -7 -4 -8 -2 -4 5 10 15 26 4 26 -17z m157 -19
c-3 -10 -5 -2 -5 17 0 19 2 27 5 18 2 -10 2 -26 0 -35z m180 0 c-3 -10 -5 -2
-5 17 0 19 2 27 5 18 2 -10 2 -26 0 -35z m410 15 c-3 -7 -5 -2 -5 12 0 14 2
19 5 13 2 -7 2 -19 0 -25z m20 -30 c-2 -13 -4 -3 -4 22 0 25 2 35 4 23 2 -13
2 -33 0 -45z m14 -52 c-5 -12 -12 -28 -14 -36 -3 -8 -6 2 -6 23 -1 23 3 36 9
32 6 -4 11 14 12 47 l2 53 3 -49 c3 -28 0 -59 -6 -70z m-824 72 c-3 -7 -5 -2
-5 12 0 14 2 19 5 13 2 -7 2 -19 0 -25z m320 -5 c-3 -10 -5 -4 -5 12 0 17 2
24 5 18 2 -7 2 -21 0 -30z m546 -38 c-3 -11 -5 -39 -4 -63 1 -27 -3 -41 -9
-37 -11 7 -14 158 -3 169 11 10 24 -45 16 -69z m-1203 -32 c0 -42 -18 -43 -65
-2 -24 21 -35 40 -35 58 0 42 9 43 56 9 37 -26 44 -37 44 -65z m87 91 c-3 -3
-12 -4 -19 -1 -8 3 -5 6 6 6 11 1 17 -2 13 -5z m430 -16 c-3 -8 -6 -5 -6 6 -1
11 2 17 5 13 3 -3 4 -12 1 -19z m160 -10 c-3 -7 -5 -2 -5 12 0 14 2 19 5 13 2
-7 2 -19 0 -25z m20 0 c-3 -7 -5 -2 -5 12 0 14 2 19 5 13 2 -7 2 -19 0 -25z
m100 0 c-3 -7 -5 -2 -5 12 0 14 2 19 5 13 2 -7 2 -19 0 -25z m-544 5 c-7 -2
-19 -2 -25 0 -7 3 -2 5 12 5 14 0 19 -2 13 -5z m1167 -73 l0 -70 -62 0 c-35 0
-80 -3 -100 -6 l-38 -7 0 70 c0 38 3 73 7 76 3 4 48 7 100 7 l93 0 0 -70z
m-293 -2 c-2 -13 -4 -3 -4 22 0 25 2 35 4 23 2 -13 2 -33 0 -45z m-877 -23 c0
-72 -1 -75 -23 -75 -13 0 -59 -3 -101 -7 l-77 -6 3 74 c4 86 5 86 126 88 l72
1 0 -75z m704 27 c25 -29 45 -90 44 -137 l0 -40 -9 45 c-5 25 -11 55 -14 67
-7 31 -54 83 -74 83 -31 0 -64 -48 -82 -117 -9 -38 -18 -61 -18 -53 -2 31 30
135 47 153 36 40 68 40 106 -1z m-144 9 c0 -11 -5 -42 -12 -70 -11 -48 -13
-51 -67 -74 -31 -13 -102 -41 -157 -62 l-101 -37 -89 32 c-49 18 -100 37 -113
42 -18 7 -21 12 -13 20 7 7 12 44 12 90 l0 78 270 0 c260 0 270 -1 270 -19z
m190 -29 c0 -13 -3 -12 -15 4 -19 25 -19 40 0 24 8 -7 15 -20 15 -28z m-113
-24 c-3 -7 -5 -2 -5 12 0 14 2 19 5 13 2 -7 2 -19 0 -25z m57 -10 c10 -22 10
-43 3 -81 -13 -68 -22 -76 -42 -37 -14 27 -15 40 -6 70 6 21 11 49 11 64 0 33
17 25 34 -16z m223 10 c-3 -8 -6 -5 -6 6 -1 11 2 17 5 13 3 -3 4 -12 1 -19z
m-321 -56 c-17 -16 -18 -16 -5 5 7 12 15 20 18 17 3 -2 -3 -12 -13 -22z m208
-67 c4 -38 2 -86 -3 -105 l-9 -35 -1 40 c0 22 -3 76 -6 120 -4 54 -3 75 4 65
5 -7 12 -46 15 -85z m-184 48 c-11 -17 -11 -17 -6 0 3 10 6 24 7 30 0 9 2 9 5
0 3 -7 0 -20 -6 -30z m-20 -13 c0 -5 -5 -10 -11 -10 -5 0 -7 5 -4 10 3 6 8 10
11 10 2 0 4 -4 4 -10z m-720 -35 c0 -26 -14 -33 -25 -15 -9 14 1 40 15 40 5 0
10 -11 10 -25z m104 -40 c4 -22 0 -87 -8 -145 -9 -65 -12 -144 -9 -206 6 -109
-5 -238 -16 -195 -6 21 -8 22 -20 8 -10 -13 -10 -23 -1 -52 6 -19 15 -33 20
-30 13 8 45 -139 35 -161 -6 -15 -10 -9 -15 26 -11 62 -47 166 -75 215 -13 22
-27 57 -30 77 l-7 38 -23 -22 c-22 -21 -22 -22 -5 -52 10 -17 20 -44 24 -61 5
-29 5 -29 -5 -5 -28 66 -35 75 -59 75 -16 0 -29 -9 -37 -25 -12 -23 -13 -23
-13 -4 0 12 7 41 15 64 8 23 15 64 15 91 0 53 26 130 42 126 6 -1 13 4 15 11
3 6 0 12 -6 12 -7 0 -11 21 -10 53 1 52 2 52 8 12 19 -111 84 -134 129 -45 13
27 17 60 17 147 0 110 7 126 19 48z m511 44 c-22 -10 -83 -39 -135 -63 l-95
-44 85 -40 c47 -21 106 -47 133 -57 26 -10 46 -20 43 -22 -2 -2 -21 3 -41 11
-43 18 -69 21 -60 6 3 -6 26 -15 51 -21 24 -6 44 -14 44 -17 0 -4 -19 -53 -41
-109 -32 -79 -46 -103 -61 -103 -10 0 -26 -4 -36 -9 -18 -10 -373 -33 -382
-24 -3 2 -5 64 -5 136 l0 131 116 40 117 40 92 -32 c50 -17 90 -27 88 -21 -2
7 -46 27 -96 45 l-93 34 -47 -19 c-93 -36 -88 -35 -75 -20 7 7 27 18 45 23 17
6 33 16 35 23 2 6 -33 29 -81 52 -95 44 -116 63 -33 30 28 -12 77 -31 107 -42
l55 -20 145 56 c149 57 195 70 125 36z m-577 -93 c13 -15 13 -17 2 -10 -8 5
-19 9 -25 9 -10 0 -11 8 -5 73 l3 37 4 -45 c3 -25 12 -54 21 -64z m707 58 c0
-21 4 -45 8 -52 6 -8 0 -15 -17 -22 -14 -5 -26 -15 -26 -21 0 -7 -3 -10 -6 -7
-3 4 2 18 11 31 20 31 17 94 -4 89 -12 -3 -12 -1 -1 13 20 25 35 12 35 -31z
m-814 -49 l-9 -60 -1 50 c0 28 2 61 6 75 12 41 14 1 4 -65z m142 32 c7 -49 5
-53 -17 -32 -20 21 -22 87 -2 79 7 -3 16 -24 19 -47z m774 21 c-3 -7 -5 -2 -5
12 0 14 2 19 5 13 2 -7 2 -19 0 -25z m-204 -167 c-1 -2 -47 16 -103 39 -55 24
-99 45 -97 47 2 2 46 25 98 51 l94 48 5 -91 c3 -49 4 -92 3 -94z m54 127 c-3
-7 -5 -2 -5 12 0 14 2 19 5 13 2 -7 2 -19 0 -25z m-492 -5 c30 -15 55 -30 55
-34 0 -6 -111 -59 -124 -59 -3 0 -6 27 -6 60 0 33 4 60 10 60 5 0 34 -12 65
-27z m638 8 c6 -6 -7 -6 -34 0 -24 6 -46 13 -49 16 -9 10 73 -6 83 -16z m53
-18 c-2 -16 -8 -46 -11 -68 -12 -73 -56 -138 -100 -147 -27 -6 -72 18 -80 42
-10 31 -21 24 -40 -27 -21 -57 -70 -141 -60 -103 9 33 87 210 92 210 2 0 2 -9
-2 -20 -7 -21 31 -64 66 -75 47 -15 93 53 105 158 5 40 11 57 21 57 10 0 13
-8 9 -27z m-918 8 c9 -5 12 -30 10 -87 -3 -70 -4 -76 -16 -56 -15 27 -29 152
-16 152 5 0 15 -4 22 -9z m702 -83 c0 -16 -4 -28 -10 -28 -5 0 -10 10 -10 23
0 12 -3 33 -6 47 -6 24 -6 25 9 5 9 -11 17 -32 17 -47z m124 25 c3 -21 5 -51
5 -68 -1 -24 -5 -18 -19 29 -11 33 -17 63 -14 68 11 18 22 6 28 -29z m-50 1
c5 -14 4 -15 -9 -4 -17 14 -19 20 -6 20 5 0 12 -7 15 -16z m87 -21 c-10 -17
-10 -16 -11 3 0 23 13 41 18 25 2 -6 -1 -18 -7 -28z m-776 -32 c-10 -32 -35
-26 -35 7 0 36 10 46 28 28 9 -8 11 -22 7 -35z m693 -2 c-3 -8 -7 -3 -11 10
-4 17 -3 21 5 13 5 -5 8 -16 6 -23z m-751 -11 c-3 -7 -5 -2 -5 12 0 14 2 19 5
13 2 -7 2 -19 0 -25z m739 -23 c7 -27 6 -29 -9 -16 -10 7 -17 25 -17 39 0 33
16 18 26 -23z m-599 29 c-3 -3 -12 -4 -19 -1 -8 3 -5 6 6 6 11 1 17 -2 13 -5z
m620 -36 c-3 -8 -6 -5 -6 6 -1 11 2 17 5 13 3 -3 4 -12 1 -19z m-83 -120 c-3
-35 -15 -83 -25 -107 -11 -24 -19 -50 -19 -57 0 -18 -20 -17 -43 0 -17 13 -15
20 35 119 29 58 54 106 56 106 2 1 0 -27 -4 -61z m110 -20 c-1 -21 -7 -45 -15
-54 -12 -14 -14 -14 -26 2 -14 19 -18 76 -6 88 4 4 16 6 28 4 16 -2 20 -10 19
-40z m96 23 c23 -43 8 -181 -20 -181 -26 0 -38 153 -14 191 9 15 23 10 34 -10z
m-154 -120 c5 -5 20 -11 33 -13 14 -1 26 -10 28 -18 4 -13 3 -13 -6 0 -5 8
-13 11 -17 7 -4 -4 -2 -13 4 -19 15 -15 16 -28 2 -28 -5 0 -10 5 -10 12 0 19
-31 48 -52 48 -10 0 -18 5 -18 10 0 13 23 13 36 1z m-161 -46 c25 -19 62 -37
83 -40 20 -3 51 -10 67 -14 24 -7 25 -9 8 -10 -12 -1 -32 -14 -45 -30 -23 -30
-23 -30 -158 -35 l-135 -5 132 12 c118 11 135 14 148 34 14 21 13 22 -22 34
-21 7 -38 10 -38 8 0 -2 -14 9 -30 24 -29 27 -32 28 -120 23 -88 -5 -89 -5
-20 4 38 5 71 14 73 19 5 15 7 15 57 -24z m175 -1 c14 -35 14 -36 -22 -32 -27
2 -32 7 -30 23 4 19 19 35 35 35 4 0 12 -12 17 -26z m-420 -4 c-20 -13 -33
-13 -25 0 3 6 14 10 23 10 15 0 15 -2 2 -10z m-110 -9 c-71 -6 -75 -7 -78 -31
-2 -14 -8 -31 -14 -37 -7 -9 -5 -14 8 -19 11 -3 35 -13 54 -22 19 -9 49 -19
65 -23 28 -6 27 -6 -11 -8 -27 -1 -50 6 -66 18 -13 11 -37 23 -52 27 -20 5
-25 11 -20 23 4 9 9 31 12 49 l4 32 87 -2 86 -2 -75 -5z m135 -29 c-3 -3 -11
0 -18 7 -9 10 -8 11 6 5 10 -3 15 -9 12 -12z m192 12 c-3 -3 -12 -4 -19 -1 -8
3 -5 6 6 6 11 1 17 -2 13 -5z m-137 -64 c-8 -5 -17 -6 -20 -3 -3 3 1 8 8 10 6
3 9 10 6 16 -4 7 -1 7 7 -1 12 -11 12 -14 -1 -22z m-80 16 c0 -3 -4 -8 -10
-11 -5 -3 -10 -1 -10 4 0 6 5 11 10 11 6 0 10 -2 10 -4z m217 -2 c-3 -3 -12
-4 -19 -1 -8 3 -5 6 6 6 11 1 17 -2 13 -5z m221 -6 c-5 -15 -58 -24 -58 -9 0
9 20 17 48 20 8 0 12 -5 10 -11z m-741 -54 c-3 -3 -12 -4 -19 -1 -8 3 -5 6 6
6 11 1 17 -2 13 -5z m351 -1 c-10 -2 -28 -2 -40 0 -13 2 -5 4 17 4 22 1 32 -1
23 -4z m581 -75 c1 -52 -16 -56 -24 -6 -3 24 -9 51 -12 62 -3 12 -1 16 6 12 6
-4 11 -1 12 6 2 25 17 -37 18 -74z"/>
<path d="M2647 3223 c-3 -5 -8 -28 -12 -52 -5 -31 -4 -42 4 -37 8 5 8 0 1 -18
-14 -37 6 -42 24 -5 22 44 6 150 -17 112z"/>
<path d="M2987 3193 c-4 -3 -35 -7 -69 -8 -40 -1 -63 -6 -66 -14 -3 -9 5 -12
24 -10 16 2 34 0 39 -3 6 -4 17 -3 25 2 9 6 20 4 30 -5 14 -13 18 -12 32 5 13
15 14 21 4 29 -7 6 -16 8 -19 4z"/>
<path d="M3030 3169 c-11 -19 -10 -21 3 -16 16 6 41 -15 31 -26 -3 -3 -2 -16
2 -29 7 -21 8 -21 15 12 6 29 3 38 -16 58 l-24 23 -11 -22z"/>
<path d="M2762 3171 c2 -7 7 -12 11 -12 12 1 9 15 -3 20 -7 2 -11 -2 -8 -8z"/>
<path d="M2800 3170 c0 -5 6 -10 14 -10 8 0 18 5 21 10 3 6 -3 10 -14 10 -12
0 -21 -4 -21 -10z"/>
<path d="M3071 2494 c0 -11 3 -14 6 -6 3 7 2 16 -1 19 -3 4 -6 -2 -5 -13z"/>
<path d="M3237 2003 c-11 -10 -8 -43 3 -43 6 0 10 11 10 25 0 26 -2 29 -13 18z"/>
<path d="M3457 2462 c-5 -7 -10 -74 -8 -100 1 -10 22 -12 84 -10 l82 3 3 58 3
57 -80 0 c-44 0 -82 -3 -84 -8z m141 -50 c3 -33 0 -42 -13 -42 -9 0 -14 4 -11
9 3 4 1 22 -3 39 -10 32 -5 45 13 39 6 -2 12 -22 14 -45z m-87 24 c-8 -10 -8
-21 -1 -40 13 -36 14 -36 -15 -36 -23 0 -25 4 -25 45 0 42 2 45 26 45 21 0 24
-3 15 -14z m28 -17 c-16 -10 -23 -4 -14 10 3 6 11 8 17 5 6 -4 5 -9 -3 -15z"/>
<path d="M2338 2443 c-52 -4 -58 -6 -58 -26 0 -12 -3 -39 -6 -59 l-7 -38 87 0
86 0 2 50 c0 28 1 56 2 63 1 13 -21 15 -106 10z m83 -17 c3 -3 3 -23 1 -45 -5
-52 -30 -64 -30 -14 0 40 -12 56 -38 51 -14 -2 -20 -14 -22 -46 -3 -34 -7 -42
-23 -42 -20 0 -23 15 -13 69 6 30 8 31 64 31 31 0 59 -2 61 -4z m-51 -26 c0
-5 -7 -10 -16 -10 -8 0 -12 5 -9 10 3 6 10 10 16 10 5 0 9 -4 9 -10z"/>
<path d="M2391 1961 c-9 -6 -11 -16 -7 -27 7 -18 8 -18 17 -1 14 23 8 39 -10
28z"/>
<path d="M2265 1930 c-26 -29 -33 -131 -11 -149 9 -7 22 -11 30 -8 17 7 36 67
36 114 0 64 -21 80 -55 43z m35 -49 c0 -46 -15 -91 -30 -91 -13 0 -13 71 0
104 14 39 30 31 30 -13z"/>
<path d="M2330 1925 c0 -9 5 -15 11 -13 6 2 11 8 11 13 0 5 -5 11 -11 13 -6 2
-11 -4 -11 -13z"/>
<path d="M2355 1880 c-25 -28 -32 -115 -12 -163 19 -44 38 -47 58 -10 18 34
19 154 0 176 -17 22 -24 21 -46 -3z m39 -32 c13 -51 -4 -155 -24 -143 -15 9
-21 95 -10 130 13 40 25 45 34 13z"/>
<path d="M2227 1758 c-7 -25 -3 -33 12 -23 13 8 15 45 2 45 -5 0 -11 -10 -14
-22z"/>
</g>
</svg>
